<?xml version="1.0" encoding="UTF-8" standalone="no"?> <svg width="64" height="64" viewBox="0 0 64 64" fill="none" xmlns="http://www.w3.org/2000/svg">
<path d="M47 16C46.7348 16 46.4804 15.8946 46.2929 15.7071C46.1054 15.5196 46 15.2652 46 15V12C46 11.7348 46.1054 11.4804 46.2929 11.2929C46.4804 11.1054 46.7348 11 47 11C47.2652 11 47.5196 11.1054 47.7071 11.2929C47.8946 11.4804 48 11.7348 48 12V15C48 15.2652 47.8946 15.5196 47.7071 15.7071C47.5196 15.8946 47.2652 16 47 16Z" fill="#EF5350"/>
<path d="M47 51C46.7348 51 46.4804 50.8946 46.2929 50.7071C46.1054 50.5196 46 50.2652 46 50V28C46 27.7348 46.1054 27.4804 46.2929 27.2929C46.4804 27.1054 46.7348 27 47 27C47.2652 27 47.5196 27.1054 47.7071 27.2929C47.8946 27.4804 48 27.7348 48 28V50C48 50.2652 47.8946 50.5196 47.7071 50.7071C47.5196 50.8946 47.2652 51 47 51Z" fill="#EF5350"/>
<path d="M33 28C33 24.287 34.475 20.726 37.1005 18.1005C39.726 15.475 43.287 14 47 14C50.713 14 54.274 15.475 56.8995 18.1005C59.525 20.726 61 24.287 61 28H33Z" fill="#95D5B2"/>
<path d="M61 28H33C32.9956 25.8412 33.4955 23.7113 34.46 21.78C37.0549 23.2754 40.0054 24.0424 43 24C49.18 24 54.34 21.02 55.67 17.02C57.3345 18.3248 58.6796 19.9918 59.6031 21.8944C60.5267 23.797 61.0044 25.8851 61 28V28Z" fill="#52B788"/>
<path d="M41 28C41 20.268 43.686 14 47 14C50.314 14 53 20.268 53 28H41Z" fill="#FCEA42"/>
<path d="M53 28H41C40.9977 26.6358 41.0846 25.2729 41.26 23.92C41.83 23.97 42.41 24 43 24C46.2929 24.0658 49.5274 23.1238 52.27 21.3C52.7684 23.4981 53.0133 25.7461 53 28Z" fill="#FDC741"/>
<path d="M43.97 42.243L42.03 41.757L43.03 37.757C43.0842 37.5408 43.2091 37.3488 43.3848 37.2117C43.5606 37.0745 43.7771 37 44 37H54.857V39H44.781L43.97 42.243Z" fill="#0096C7"/>
<path d="M57 34L52 41H37L32 52H37L40 45H52V51H56V43L60 36L57 34Z" fill="#48CAE4"/>
<path d="M60 36L56 43V51H52V45H40L37 52H32L33.84 47.96C34.5307 47.868 35.1836 47.5908 35.7294 47.1576C36.2751 46.7245 36.6935 46.1517 36.94 45.5C37.2158 44.7674 37.7078 44.136 38.3508 43.6895C38.9937 43.243 39.7572 43.0025 40.54 43H51.62C52.335 43.0013 53.0361 42.8024 53.644 42.426C54.2519 42.0496 54.7424 41.5106 55.06 40.87L58.12 34.75L60 36Z" fill="#00B4D8"/>
<path d="M42.888 50.31C37.7424 51.4125 32.3865 50.9835 27.482 49.076L25.447 48.285C19.9665 46.1536 13.9391 45.8744 8.285 47.49L3 49V61H61V52L55.064 50.516C51.0743 49.5187 46.9092 49.4483 42.888 50.31V50.31Z" fill="#EFAD1B"/>
<path d="M47.27 50.31H42.888C40.6749 50.7822 38.4109 50.9728 36.15 50.877C35.2207 50.8291 34.2925 50.9894 33.433 51.346L33.233 51.433C31.9675 51.9908 30.5445 52.0787 29.22 51.681C28.636 51.5003 28.058 51.3003 27.486 51.081L25.451 50.29C19.9699 48.1561 13.9408 47.8751 8.285 49.49L3 51V61H61V52C56.4924 50.9732 51.8921 50.4069 47.27 50.31V50.31Z" fill="#D8950F"/>
<path d="M21 61L27.794 56.471C36.9743 50.3502 48.0059 47.632 58.979 48.787L61 49V61H21Z" fill="#FDC741"/>
<path d="M52.113 49.706C50.9047 50.2344 49.6186 50.563 48.305 50.679C40.561 51.314 34.541 53.973 27.794 58.471L24 61H61V49L58.979 48.787C58.7417 48.7617 58.5043 48.7387 58.267 48.718C56.1654 48.5302 54.0502 48.8698 52.113 49.706Z" fill="#EFAD1B"/>
<path d="M22.085 54.011L12.236 52.275L12.168 39.375C12.1363 33.2947 14.4137 27.429 18.54 22.963L21.3 19.975C21.5272 19.7291 21.8126 19.5443 22.1298 19.4373C22.4471 19.3304 22.7861 19.3048 23.1159 19.3629C23.4456 19.4211 23.7554 19.561 24.017 19.77C24.2786 19.979 24.4835 20.2503 24.613 20.559L26.186 24.312C28.5351 29.9196 28.6684 36.2099 26.559 41.912L22.085 54.011Z" fill="#EF5350"/>
<path d="M26.56 41.92L22.08 54.01L12.24 52.27L12.21 47.25C14.2614 46.8852 16.1816 45.99 17.7798 44.6532C19.3779 43.3164 20.5985 41.5846 21.32 39.63L22.32 36.92C24.4086 31.2744 24.3015 25.0504 22.02 19.48C22.5071 19.2841 23.0517 19.2875 23.5362 19.4895C24.0208 19.6916 24.4065 20.0761 24.61 20.56L26.19 24.31C28.539 29.9213 28.6712 36.215 26.56 41.92Z" fill="#E53935"/>
<path d="M25.067 45.967L23.459 50.303L18.376 46.249L12.213 48.32L12.185 43.695L19.244 41.325L25.067 45.967Z" fill="#52B788"/>
<path d="M25.07 45.97L23.46 50.3L18.38 46.25L12.21 48.32V47.26C13.8143 46.9707 15.3425 46.3567 16.701 45.4556C18.0595 44.5546 19.2195 43.3854 20.11 42.02L25.07 45.97Z" fill="#40916C"/>
<path d="M24.06 19.8L18.36 52.11L16.35 51.97L22.09 19.45C22.4206 19.3334 22.7758 19.3044 23.121 19.3657C23.4662 19.4271 23.7897 19.5767 24.06 19.8V19.8Z" fill="#ADE8F4"/>
<path d="M20.15 41.95L18.36 52.11L16.35 51.97L17.62 44.79C18.6107 43.9857 19.465 43.0267 20.15 41.95V41.95Z" fill="#48CAE4"/>
<path d="M24.06 19.8L23.34 23.87C23.0557 22.4078 22.6269 20.9775 22.06 19.6L22.09 19.45C22.4207 19.3334 22.7759 19.3044 23.1211 19.3657C23.4663 19.4271 23.7897 19.5767 24.06 19.8V19.8Z" fill="#48CAE4"/>
<path d="M42.888 55.31C37.7424 56.4125 32.3865 55.9835 27.482 54.076L25.447 53.285C19.9665 51.1536 13.9391 50.8744 8.285 52.49L3 54V61H61V57L55.064 55.516C51.0743 54.5187 46.9092 54.4483 42.888 55.31V55.31Z" fill="#FCEA42"/>
<path d="M61 57V61H3V57L8.29 55.49C13.9432 53.8696 19.9721 54.1507 25.45 56.29L27.48 57.08C32.386 58.9874 37.7435 59.415 42.89 58.31C43.33 58.21 43.78 58.13 44.23 58.06C45.3198 57.8865 46.3637 57.4961 47.3 56.912C48.3944 56.1819 49.6235 55.6775 50.9153 55.4285C52.2071 55.1795 53.5356 55.1909 54.823 55.462L55.059 55.52L61 57Z" fill="#FDC741"/>
<path d="M11 3C11.1027 3.40971 11.313 3.78451 11.6092 4.08561C11.9054 4.3867 12.2767 4.60312 12.6847 4.71246C13.0927 4.82179 13.5225 4.82007 13.9296 4.70746C14.3366 4.59485 14.7062 4.37546 15 4.072V4.072C14.8838 4.47814 14.8784 4.90798 14.9843 5.31693C15.0902 5.72588 15.3035 6.09906 15.6022 6.39777C15.9009 6.69648 16.2741 6.90984 16.6831 7.01574C17.092 7.12163 17.5219 7.1162 17.928 7V7C17.6245 7.29379 17.4051 7.66336 17.2925 8.07045C17.1799 8.47753 17.1782 8.90732 17.2875 9.31529C17.3969 9.72326 17.6133 10.0946 17.9144 10.3908C18.2155 10.687 18.5903 10.8973 19 11C18.5903 11.1027 18.2155 11.313 17.9144 11.6092C17.6133 11.9054 17.3969 12.2767 17.2875 12.6847C17.1782 13.0927 17.1799 13.5225 17.2925 13.9296C17.4051 14.3366 17.6245 14.7062 17.928 15V15C17.5219 14.8838 17.092 14.8784 16.6831 14.9843C16.2741 15.0902 15.9009 15.3035 15.6022 15.6022C15.3035 15.9009 15.0902 16.2741 14.9843 16.6831C14.8784 17.092 14.8838 17.5219 15 17.928V17.928C14.7062 17.6245 14.3366 17.4051 13.9296 17.2925C13.5225 17.1799 13.0927 17.1782 12.6847 17.2875C12.2767 17.3969 11.9054 17.6133 11.6092 17.9144C11.313 18.2155 11.1027 18.5903 11 19V19C10.8973 18.5903 10.687 18.2155 10.3908 17.9144C10.0946 17.6133 9.72326 17.3969 9.31529 17.2875C8.90732 17.1782 8.47753 17.1799 8.07045 17.2925C7.66336 17.4051 7.29379 17.6245 7 17.928C7.1162 17.5219 7.12163 17.092 7.01574 16.6831C6.90984 16.2741 6.69648 15.9009 6.39777 15.6022C6.09906 15.3035 5.72588 15.0902 5.31693 14.9843C4.90798 14.8784 4.47814 14.8838 4.072 15C4.37546 14.7062 4.59485 14.3366 4.70746 13.9296C4.82007 13.5225 4.82179 13.0927 4.71246 12.6847C4.60312 12.2767 4.3867 11.9054 4.08561 11.6092C3.78451 11.313 3.40971 11.1027 3 11V11C3.40971 10.8973 3.78451 10.687 4.08561 10.3908C4.3867 10.0946 4.60312 9.72326 4.71246 9.31529C4.82179 8.90732 4.82007 8.47753 4.70746 8.07045C4.59485 7.66336 4.37546 7.29379 4.072 7V7C4.47814 7.1162 4.90798 7.12163 5.31693 7.01574C5.72588 6.90984 6.09906 6.69648 6.39777 6.39777C6.69648 6.09906 6.90984 5.72588 7.01574 5.31693C7.12163 4.90798 7.1162 4.47814 7 4.072V4.072C7.29379 4.37546 7.66336 4.59485 8.07045 4.70746C8.47753 4.82007 8.90732 4.82179 9.31529 4.71246C9.72326 4.60312 10.0946 4.3867 10.3908 4.08561C10.687 3.78451 10.8973 3.40971 11 3V3Z" fill="#FCEA42"/>
<path d="M11 15.859C10.3065 15.4306 9.5072 15.2041 8.69202 15.205H8.57201C8.16418 14.452 7.54512 13.8347 6.79101 13.429C6.81782 12.5729 6.59136 11.7279 6.14001 11C6.59161 10.2718 6.81808 9.42644 6.79101 8.57001C7.54498 8.16364 8.16396 7.54606 8.57201 6.79301H8.69202C9.50701 6.79453 10.3063 6.56874 11 6.14101C11.6935 6.56944 12.4928 6.79593 13.308 6.79501H13.428C13.8359 7.54797 14.4549 8.16529 15.209 8.57101C15.1822 9.4271 15.4087 10.2721 15.86 11C15.4084 11.7282 15.1819 12.5736 15.209 13.43C14.455 13.8364 13.8361 14.454 13.428 15.207H13.308C12.493 15.2055 11.6937 15.4313 11 15.859V15.859Z" fill="#FDC741"/>
<path d="M11 14C12.6569 14 14 12.6569 14 11C14 9.34315 12.6569 8 11 8C9.34315 8 8 9.34315 8 11C8 12.6569 9.34315 14 11 14Z" fill="#EF5350"/>
<path d="M25 16C24.9177 16.0003 24.8357 15.9903 24.756 15.97L20.756 14.97C20.5004 14.904 20.2812 14.7397 20.1464 14.5128C20.0115 14.2858 19.9717 14.0148 20.0359 13.7587C20.1 13.5027 20.2628 13.2824 20.4888 13.1458C20.7147 13.0093 20.9855 12.9677 21.242 13.03L25.242 14.03C25.4786 14.0893 25.6854 14.233 25.8234 14.4341C25.9614 14.6352 26.0212 14.8798 25.9914 15.1219C25.9617 15.364 25.8445 15.5869 25.6619 15.7486C25.4793 15.9103 25.2439 15.9997 25 16Z" fill="#FCEA42"/>
<path d="M21 9C20.7561 8.99973 20.5207 8.91032 20.3381 8.74861C20.1555 8.58689 20.0383 8.36401 20.0086 8.12192C19.9788 7.87983 20.0386 7.63522 20.1766 7.43412C20.3146 7.23301 20.5214 7.08929 20.758 7.03L24.758 6.03C24.8857 5.99702 25.0187 5.98965 25.1493 6.00831C25.2799 6.02696 25.4055 6.07127 25.5189 6.13869C25.6323 6.2061 25.7313 6.29529 25.8101 6.40111C25.8888 6.50693 25.9459 6.62729 25.978 6.75525C26.01 6.88322 26.0164 7.01627 25.9968 7.14673C25.9773 7.27719 25.932 7.40249 25.8638 7.5154C25.7956 7.62831 25.7057 7.72661 25.5993 7.80463C25.493 7.88265 25.3722 7.93885 25.244 7.97L21.244 8.97C21.1643 8.99024 21.0823 9.00032 21 9Z" fill="#FCEA42"/>
<path d="M11 28C10.7348 28 10.4804 27.8946 10.2929 27.7071C10.1054 27.5196 10 27.2652 10 27V22C10 21.7348 10.1054 21.4804 10.2929 21.2929C10.4804 21.1054 10.7348 21 11 21C11.2652 21 11.5196 21.1054 11.7071 21.2929C11.8946 21.4804 12 21.7348 12 22V27C12 27.2652 11.8946 27.5196 11.7071 27.7071C11.5196 27.8946 11.2652 28 11 28Z" fill="#FCEA42"/>
<path d="M3.99999 26C3.82959 25.9999 3.66205 25.9563 3.51326 25.8733C3.36446 25.7902 3.23935 25.6706 3.14979 25.5256C3.06023 25.3807 3.0092 25.2152 3.00153 25.045C2.99387 24.8748 3.02982 24.7054 3.10599 24.553L5.10598 20.553C5.22454 20.3156 5.43253 20.1351 5.6842 20.0511C5.93587 19.9671 6.21062 19.9865 6.44798 20.105C6.68535 20.2236 6.86591 20.4315 6.94992 20.6832C7.03394 20.9349 7.01454 21.2096 6.89598 21.447L4.89599 25.447C4.81284 25.6134 4.68494 25.7533 4.52666 25.851C4.36838 25.9487 4.18599 26.0003 3.99999 26Z" fill="#FCEA42"/>
<path d="M18 26C17.8133 26.001 17.6301 25.9498 17.471 25.852C17.312 25.7543 17.1834 25.614 17.1 25.447L15.1 21.447C14.9814 21.2096 14.962 20.9349 15.046 20.6832C15.1301 20.4315 15.3106 20.2236 15.548 20.105C15.7854 19.9865 16.0601 19.9671 16.3118 20.0511C16.5634 20.1351 16.7714 20.3156 16.89 20.553L18.89 24.553C18.966 24.7051 19.002 24.8741 18.9945 25.044C18.987 25.2139 18.9363 25.3791 18.8472 25.5239C18.7581 25.6688 18.6336 25.7885 18.4853 25.8718C18.3371 25.9551 18.17 25.9992 18 26Z" fill="#FCEA42"/>
<path d="M24 22C23.8188 22.0001 23.6411 21.9506 23.486 21.857L18.486 18.857C18.2638 18.718 18.1051 18.4973 18.044 18.2424C17.9829 17.9875 18.0243 17.7189 18.1593 17.4942C18.2943 17.2696 18.5121 17.1069 18.7659 17.0412C19.0196 16.9755 19.289 17.0121 19.516 17.143L24.516 20.143C24.7034 20.2557 24.8487 20.4267 24.9297 20.6298C25.0106 20.833 25.0227 21.057 24.9642 21.2677C24.9056 21.4784 24.7797 21.6641 24.6055 21.7964C24.4314 21.9286 24.2187 22.0001 24 22Z" fill="#FCEA42"/>
</svg>
