<?xml version="1.0" encoding="UTF-8" standalone="no"?> <svg id="icons" xmlns="http://www.w3.org/2000/svg" viewBox="0 0 500 500"><path d="M26.855,247.288c15.3-28.079,43.219-73.785,74.731-98.911H200.91S229.6,173.943,241.325,242.7v84.254H15.485l-.554-31.083A97.9,97.9,0,0,1,26.855,247.288Z" style="fill:#e2d670"/><path d="M64.978,187.4s16.59-17.086,44.158-22.757a21.741,21.741,0,0,1,16.746,3.49l11.647,8.077a21.9,21.9,0,0,0,25.665-.5l15.126-11.4a21.9,21.9,0,0,1,20.9-3.006l16.177,6.2s-12.682-33.083-36.386-56.046a34.883,34.883,0,0,0-45.685-2.2C114.512,123.935,86.732,149.769,64.978,187.4Z" style="fill:#a3994f"/><path d="M155.33,290.186h85.995V242.7c-10.269-60.2-33.536-87.289-39.17-93.1C185.053,174.429,155.276,226.77,155.33,290.186Z" style="fill:#a3994f"/><path d="M464.171,181.632c-22.123-34.424-47.032-71.834-47.032-71.834L390.705,93.182,278.927,90.916l-32.476,38.519s-62.994,114.2-76.994,163.537c0,0,10,34,74,34H485.084V252.817A131.666,131.666,0,0,0,464.171,181.632Z" style="fill:#e2d670"/><path d="M215,360.155c10.6,4.839,21.714,9.167,32.5,13.276,36.138,13.765,50.571,50.841,31.99,80.311a111.483,111.483,0,0,1-12.409,16.19H434.905s2.7-90.53-124.115-129.383c-56.06-17.176-87.85-28.315-104.78-40.719C179.927,301.962,175.64,335.941,215,360.155Z" style="fill:#a1b7ec"/><polygon points="141.627 405.854 101.012 342.668 128.731 342.668 82.938 271.427 37.145 342.668 64.864 342.668 24.249 405.854 141.627 405.854" style="fill:#6a8953"/><polygon points="465.632 299.363 425.016 236.177 452.736 236.177 406.943 164.936 361.15 236.177 388.869 236.177 348.254 299.363 465.632 299.363" style="fill:#6a8953"/><path d="M246.451,129.435s10.533-10.982,31.5-19.148a31.408,31.408,0,0,1,28.357,2.831h0a31.381,31.381,0,0,0,34.229-.213l.118-.078a31.532,31.532,0,0,1,32.973-.975c11.51,6.54,28.119,11.2,43.516-2.054,0,0-32.2-46.511-64.644-73.1a29.8,29.8,0,0,0-39.023,1.245C295.724,54.263,268.355,84.227,246.451,129.435Z" style="fill:#a3994f"/><path d="M198.327,311.625a33.975,33.975,0,0,1,7.688-11.8c-21.36-15.653-19.068-33.32-12.016-67.675,0,0-46.114,20.83-37.639,71.028,4.516,26.751,29.694,43.762,58.64,56.972C201.677,347.181,191.2,330.143,198.327,311.625Z" style="fill:#6980c1"/><path d="M323.745,469.932c8.679-21.827,9.455-41.936,2.267-60-16.357-41.109-67.819-56.225-72.023-57.4-15.98-5.592-55.5-23.032-65.569-42.292-2.392,4.373-3.126,9.815-1.9,15.754q10.3,10.926,29.729,21.567a253.356,253.356,0,0,0,34.29,15.418c.119.042.244.08.365.113.5.137,50.283,14.112,64.9,50.949,6.512,16.407,5.154,35.151-4,55.891Z" style="fill:#6980c1"/><path d="M394.736,469.932a95.859,95.859,0,0,0-7.086-48.707c-20.8-48.3-76-67.83-78.335-68.638a5.5,5.5,0,0,0-3.595,10.4c.528.183,53.03,18.844,71.855,62.657,5.89,13.707,7.909,28.518,6.072,44.292Z" style="fill:#6980c1"/><path d="M476.812,212.4a5.5,5.5,0,0,0,5.153-7.421A137.64,137.64,0,0,0,468.8,178.658c-21.893-34.068-46.832-71.534-47.081-71.908-.009-.013-.021-.023-.029-.036s-.017-.032-.027-.047c-1.333-1.925-33.014-47.452-65.68-74.223A35.438,35.438,0,0,0,309.75,33.9c-19,17.471-46.241,47.782-68.176,92.994-.788,1.433-9.412,17.138-20.705,38.819l-.555-.851c-1.844-4.62-14.587-35.175-37.479-57.352a40.507,40.507,0,0,0-52.9-2.589A281,281,0,0,0,60.4,184.341c-16.254,21.483-29.831,44.642-38.372,60.316A104.139,104.139,0,0,0,16.4,256.8a5.5,5.5,0,1,0,10.257,3.973,92.824,92.824,0,0,1,5.033-10.85c8.354-15.334,21.619-37.966,37.447-58.894a88.152,88.152,0,0,1,41.111-21,16.3,16.3,0,0,1,12.5,2.622l11.647,8.078a27.356,27.356,0,0,0,32.11-.632l15.125-11.4a16.332,16.332,0,0,1,15.65-2.252l14.5,5.456,3.282,5.034c-8.12,15.81-17.06,33.708-25.233,51.146a83.132,83.132,0,0,0-21.891,17.047c-10.375,11.38-21.748,30.846-17,58.96,6.935,41.084,57.606,60.385,94.6,74.477,16.772,6.389,29.248,18.616,34.231,33.546a44.809,44.809,0,0,1-4.936,38.692,106.468,106.468,0,0,1-11.8,15.4l-3.438,3.728H274.41a117.61,117.61,0,0,0,9.731-13.257c9.319-14.779,11.472-31.84,6.065-48.041-6.031-18.072-20.884-32.776-40.749-40.343-43.1-16.417-82.236-33.82-87.675-66.029-5.29-31.336,12.432-50.1,24.418-58.948-4.444,24.328-4.681,41.133,10.061,55.5,15.782,15.38,48.986,27.408,112.918,47,50.167,15.37,86.852,41.68,106.089,76.086,14.5,25.942,14.144,47.672,14.138,47.874,0,.055,0,.11,0,.164h11l0-.062c.04-2.653-.1-25.382-15.189-52.718C410.879,391.183,379.667,355.9,312.4,335.29c-62.207-19.058-94.3-30.557-108.463-44.356-12.34-12.024-11.04-25.968-4.68-57.046,21.271-45.515,48.088-94.647,51.62-101.09,2.18-2.061,11.983-10.732,29.064-17.386a25.974,25.974,0,0,1,23.39,2.335,36.906,36.906,0,0,0,40.221-.245l.126-.083a25.943,25.943,0,0,1,27.227-.785c16.064,9.129,31.769,9.429,44.857,1.035,7.432,11.206,26.549,40.122,43.781,66.936a126.535,126.535,0,0,1,12.112,24.213A5.5,5.5,0,0,0,476.812,212.4Zm-275.66-56.245a27.262,27.262,0,0,0-26.142,3.762l-15.125,11.4a16.377,16.377,0,0,1-19.222.378l-11.647-8.078a27.5,27.5,0,0,0-15.631-4.9,26.587,26.587,0,0,0-5.358.543,97.836,97.836,0,0,0-23.377,8.034,273.316,273.316,0,0,1,52.056-53.7,29.461,29.461,0,0,1,38.475,1.818c13.926,13.492,24,30.819,29.693,42.15ZM376.34,107.07a37.369,37.369,0,0,0-18.482-4.922,36.669,36.669,0,0,0-20.228,6.083l-.126.083a25.9,25.9,0,0,1-28.231.176,37,37,0,0,0-33.323-3.328,119.377,119.377,0,0,0-13.832,6.419A294.227,294.227,0,0,1,317.2,41.991a24.389,24.389,0,0,1,31.813-1.039c25.76,21.11,51.77,55.6,60.523,67.659C399.916,114.645,388.775,114.136,376.34,107.07Z" style="fill:#31313f"/><path d="M77.439,469.932a5.5,5.5,0,0,0,11,0V411.354h53.188a5.5,5.5,0,0,0,4.627-8.474l-35.169-54.712h17.646a5.5,5.5,0,0,0,4.626-8.474L87.565,268.453a5.5,5.5,0,0,0-9.253,0L32.519,339.694a5.5,5.5,0,0,0,4.627,8.474H54.791L19.622,402.88a5.5,5.5,0,0,0,4.627,8.474H59.8a5.5,5.5,0,1,0,0-11H34.322l35.169-54.712a5.5,5.5,0,0,0-4.627-8.474H47.219L82.939,281.6l35.718,55.569H101.012a5.5,5.5,0,0,0-4.627,8.474l35.169,54.712H88.439V320.607a5.5,5.5,0,0,0-11,0v49.671l-3.015-3.617a5.5,5.5,0,0,0-8.451,7.042l3.963,4.755a32.444,32.444,0,0,1,7.5,20.724Z" style="fill:#31313f"/><path d="M406.942,223.37a5.5,5.5,0,0,0-5.5,5.5V358.135a5.5,5.5,0,0,0,11,0V304.862h53.19a5.5,5.5,0,0,0,4.627-8.474L435.09,241.677h17.645a5.5,5.5,0,0,0,4.627-8.474L411.57,161.962a5.5,5.5,0,0,0-9.254,0L356.523,233.2a5.5,5.5,0,0,0,4.627,8.474H378.8l-35.169,54.711a5.5,5.5,0,0,0,4.627,8.474h33.454a5.5,5.5,0,0,0,0-11H358.327L393.5,239.151a5.5,5.5,0,0,0-4.627-8.474H371.224l35.719-55.569,35.719,55.569H425.017a5.5,5.5,0,0,0-4.627,8.474l35.169,54.711H412.471a34.607,34.607,0,0,1,8.314-21.245l3.855-4.489a5.5,5.5,0,1,0-8.346-7.165l-3.852,4.486V228.87A5.5,5.5,0,0,0,406.942,223.37Z" style="fill:#31313f"/></svg>