<?xml version="1.0" encoding="UTF-8" standalone="no"?> <svg width="512" height="512" viewBox="0 0 512 512" fill="none" xmlns="http://www.w3.org/2000/svg">
<path d="M265.425 479.182C266.055 481.701 267.508 483.937 269.554 485.535C271.601 487.132 274.123 488 276.719 488V488C278.488 488 280.234 487.597 281.824 486.821C283.414 486.045 284.806 484.917 285.895 483.523C286.983 482.128 287.74 480.504 288.107 478.773C288.474 477.043 288.442 475.251 288.013 473.535L283.629 456C281.299 458.329 278.296 459.866 275.044 460.394C271.792 460.921 268.457 460.413 265.51 458.94L259.629 456L265.425 479.182Z" fill="#E42A3C"/>
<path d="M368 144C368 104.235 335.765 72 296 72C256.235 72 224 104.235 224 144V288C224 327.764 256.235 360 296 360C335.765 360 368 327.764 368 288V144Z" fill="#2E6D37"/>
<path d="M224 104C224 64.2355 191.765 32 152 32C112.235 32 80 64.2355 80 104V248C80 287.764 112.235 320 152 320C191.765 320 224 287.764 224 248V104Z" fill="#4E965A"/>
<path d="M178.828 122.828C179.557 122.074 179.96 121.063 179.951 120.015C179.942 118.966 179.521 117.963 178.779 117.221C178.038 116.479 177.035 116.059 175.986 116.049C174.937 116.04 173.927 116.444 173.172 117.172L156 134.343V105.656L178.828 82.8282C179.557 82.0738 179.96 81.0634 179.951 80.0146C179.942 78.9658 179.521 77.9625 178.779 77.2209C178.038 76.4793 177.035 76.0586 175.986 76.0495C174.937 76.0404 173.927 76.4435 173.172 77.1722L152 98.3432L130.828 77.1722C130.074 76.4435 129.063 76.0404 128.015 76.0495C126.966 76.0586 125.963 76.4793 125.221 77.2209C124.479 77.9625 124.059 78.9658 124.049 80.0146C124.04 81.0634 124.444 82.0738 125.172 82.8282L148 105.656V134.343L130.828 117.172C130.074 116.444 129.063 116.04 128.015 116.049C126.966 116.059 125.963 116.479 125.221 117.221C124.479 117.963 124.059 118.966 124.049 120.015C124.04 121.063 124.444 122.074 125.172 122.828L148 145.656V174.343L130.828 157.172C130.074 156.444 129.063 156.04 128.015 156.049C126.966 156.059 125.963 156.479 125.221 157.221C124.479 157.963 124.059 158.966 124.049 160.015C124.04 161.063 124.444 162.074 125.172 162.828L148 185.656V488C148 489.061 148.422 490.078 149.172 490.829C149.922 491.579 150.939 492 152 492C153.061 492 154.078 491.579 154.829 490.829C155.579 490.078 156 489.061 156 488V185.656L178.828 162.828C179.557 162.074 179.96 161.063 179.951 160.015C179.942 158.966 179.521 157.963 178.779 157.221C178.038 156.479 177.035 156.059 175.986 156.049C174.937 156.04 173.927 156.444 173.172 157.172L156 174.343V145.656L178.828 122.828Z" fill="#7A4922"/>
<path d="M480 360H32V400H480V360Z" fill="#5B3719"/>
<path d="M304 156C303.475 156.001 302.954 155.898 302.469 155.696C301.984 155.495 301.543 155.2 301.172 154.828L277.172 130.828C276.444 130.074 276.04 129.063 276.049 128.015C276.059 126.966 276.479 125.963 277.221 125.221C277.963 124.479 278.966 124.059 280.015 124.049C281.063 124.04 282.074 124.444 282.828 125.172L304 146.343L325.172 125.172C325.927 124.444 326.937 124.04 327.986 124.049C329.035 124.059 330.038 124.479 330.779 125.221C331.521 125.963 331.942 126.966 331.951 128.015C331.96 129.063 331.557 130.074 330.828 130.828L306.828 154.828C306.457 155.2 306.016 155.495 305.531 155.696C305.046 155.898 304.526 156.001 304 156V156Z" fill="#5B3719"/>
<path d="M304 196C303.475 196.001 302.954 195.898 302.469 195.696C301.984 195.495 301.543 195.2 301.172 194.828L277.172 170.828C276.444 170.074 276.04 169.063 276.049 168.015C276.059 166.966 276.479 165.963 277.221 165.221C277.963 164.479 278.966 164.059 280.015 164.049C281.063 164.04 282.074 164.444 282.828 165.172L304 186.343L325.172 165.172C325.927 164.444 326.937 164.04 327.986 164.049C329.035 164.059 330.038 164.479 330.779 165.221C331.521 165.963 331.942 166.966 331.951 168.015C331.96 169.063 331.557 170.074 330.828 170.828L306.828 194.828C306.457 195.2 306.016 195.495 305.531 195.696C305.046 195.898 304.526 196.001 304 196V196Z" fill="#5B3719"/>
<path d="M424 432H88V456H424V432Z" fill="#5B3719"/>
<path d="M480 360H32V376H480V360Z" fill="#7A4922"/>
<path d="M112 288H88V360H112V288Z" fill="#5B3719"/>
<path d="M176 288H152V360H176V288Z" fill="#5B3719"/>
<path d="M424 288H400V360H424V288Z" fill="#5B3719"/>
<path d="M360 288H336V360H360V288Z" fill="#7A4922"/>
<path d="M464 264H48V288H464V264Z" fill="#7A4922"/>
<path d="M464 312H48V336H464V312Z" fill="#7A4922"/>
<path d="M312.917 173.219L310.071 166.103C308.449 162.049 307.317 157.816 306.7 153.493L304.721 139.638C303.308 129.747 298.374 120.697 290.826 114.151C283.277 107.604 273.621 104 263.629 104C253.638 104 243.981 107.604 236.433 114.151C228.885 120.697 223.951 129.747 222.538 139.638L221.609 146.144C220.311 155.236 216.742 163.853 211.231 171.2V171.2C206.357 177.699 202.994 185.203 201.386 193.165C199.778 201.128 199.966 209.349 201.936 217.23L203.629 224H307.629C312.563 216.599 315.623 208.109 316.544 199.262C317.465 190.416 316.22 181.478 312.917 173.219V173.219Z" fill="#C7830B"/>
<path d="M275.629 400L259.629 456L265.51 458.94C268.457 460.413 271.792 460.921 275.044 460.394C278.296 459.866 281.299 458.329 283.629 456V456L307.629 400H275.629Z" fill="#FDC9A6"/>
<path d="M307.629 400H275.629L259.629 456L265.51 458.94C268.457 460.413 271.792 460.921 275.044 460.394C278.296 459.866 281.299 458.329 283.629 456L289.51 458.94C292.457 460.413 295.792 460.921 299.044 460.394C302.296 459.866 305.299 458.329 307.629 456L339.629 400H307.629Z" fill="#F6BB92"/>
<path d="M275.629 400L259.629 456L275.629 464L283.629 456L307.629 400H275.629Z" fill="#FDC9A6"/>
<path d="M330.239 264H299.629V312H211.629V256H192.212L192 236.385C191.949 231.625 192.843 226.902 194.629 222.49C196.416 218.078 199.059 214.064 202.407 210.68C205.755 207.296 209.741 204.61 214.134 202.777C218.527 200.943 223.24 200 228 200H287.247C293.464 200 299.574 201.61 304.984 204.673C310.393 207.736 314.918 212.147 318.116 217.478L331.629 240L330.239 264Z" fill="#ECAB2C"/>
<path d="M331.629 240H424L440 264H424L419.629 272H408L400 264H379.629H330.239L331.629 240Z" fill="#FDC9A6"/>
<path d="M211.629 312V328.856C211.629 338.049 214.384 347.032 219.538 354.645C224.692 362.258 232.009 368.152 240.545 371.566L251.629 376V400H363.629V372.79C363.629 366.683 361.765 360.722 358.287 355.702C354.808 350.683 349.881 346.844 344.163 344.7L299.629 328V312H211.629Z" fill="#5CA4D9"/>
<path d="M323.629 320L259.629 312V224L323.629 232V320Z" fill="#E42A3C"/>
<path d="M323.629 232L387.629 224V312L323.629 320V232Z" fill="#C92535"/>
<path d="M227.629 256V282.1L255.699 262.609L259.629 244.76L270.061 245.169L271.087 254.941L296.76 254.915V275.432L281.86 280.049L238.36 309.649C232.039 313.95 224.289 315.612 216.76 314.282C209.231 312.952 202.52 308.735 198.055 302.529V302.529C194.528 297.627 192.601 291.755 192.536 285.717L192.212 256H227.629Z" fill="#FDC9A6"/>
<path d="M80 400L56 488H88L112 400H80Z" fill="#5B3719"/>
<path d="M432 400L456 488H424L400 400H432Z" fill="#5B3719"/>
<path d="M152 269H104C102.939 269 101.922 268.579 101.172 267.828C100.421 267.078 100 266.061 100 265V232C100 224.574 102.95 217.452 108.201 212.201C113.452 206.95 120.574 204 128 204C135.426 204 142.548 206.95 147.799 212.201C153.05 217.452 156 224.574 156 232V265C156 266.061 155.579 267.078 154.828 267.828C154.078 268.579 153.061 269 152 269ZM108 261H148V232C148 226.696 145.893 221.609 142.142 217.858C138.391 214.107 133.304 212 128 212C122.696 212 117.609 214.107 113.858 217.858C110.107 221.609 108 226.696 108 232V261Z" fill="#ECAB2C"/>
<path d="M243.629 144C248.437 144 253.15 142.661 257.24 140.134C261.33 137.606 264.635 133.989 266.785 129.689L267.629 128L268.474 129.689C270.624 133.989 273.929 137.606 278.019 140.133C282.108 142.661 286.821 144 291.629 144V144V160C291.629 166.365 289.1 172.47 284.6 176.971C280.099 181.471 273.994 184 267.629 184V200H243.629V171L238.601 171.085C237.561 171.103 236.527 170.913 235.561 170.527C234.594 170.141 233.715 169.567 232.972 168.837C232.23 168.108 231.641 167.238 231.239 166.278C230.836 165.319 230.629 164.289 230.629 163.248V163.04C230.625 161.98 230.831 160.929 231.236 159.949C231.64 158.969 232.235 158.079 232.985 157.33C233.735 156.581 234.626 155.988 235.607 155.585C236.588 155.183 237.639 154.978 238.699 154.984C241.349 155 243.629 155 243.629 155V144Z" fill="#FDC9A6"/>
<path d="M176 256H80V360H176V256Z" fill="#C7830B"/>
<path d="M312.013 473.535L307.629 456C305.299 458.329 302.296 459.866 299.044 460.394C295.792 460.921 292.457 460.413 289.51 458.94L283.629 456C281.299 458.329 278.296 459.866 275.044 460.394C271.792 460.921 268.457 460.413 265.51 458.94L259.629 456L265.429 479.182C266.191 482.163 268.102 484.721 270.744 486.297C273.387 487.873 276.546 488.339 279.531 487.593C282.516 486.847 285.084 484.95 286.674 482.316C288.265 479.682 288.748 476.526 288.018 473.537L289.429 479.182C290.199 482.155 292.112 484.703 294.751 486.272C297.391 487.84 300.544 488.303 303.523 487.558C306.502 486.813 309.066 484.922 310.657 482.295C312.248 479.669 312.737 476.52 312.017 473.535H312.013Z" fill="#C92535"/>
<path d="M265.425 479.182C266.055 481.701 267.508 483.937 269.554 485.535C271.601 487.132 274.123 488 276.719 488V488C278.488 488 280.234 487.597 281.824 486.821C283.414 486.045 284.806 484.917 285.895 483.523C286.983 482.128 287.74 480.504 288.107 478.773C288.474 477.043 288.442 475.251 288.013 473.535L283.629 456C281.299 458.329 278.296 459.866 275.044 460.394C271.792 460.921 268.457 460.413 265.51 458.94L259.629 456L265.425 479.182Z" fill="#E42A3C"/>
<path d="M488 492H24C22.9391 492 21.9217 491.579 21.1716 490.828C20.4214 490.078 20 489.061 20 488C20 486.939 20.4214 485.922 21.1716 485.172C21.9217 484.421 22.9391 484 24 484H488C489.061 484 490.078 484.421 490.828 485.172C491.579 485.922 492 486.939 492 488C492 489.061 491.579 490.078 490.828 490.828C490.078 491.579 489.061 492 488 492Z" fill="#2E6D37"/>
</svg>
